<?xml version="1.0" standalone="no"?>
<!DOCTYPE svg PUBLIC "-//W3C//DTD SVG 20010904//EN"
 "http://www.w3.org/TR/2001/REC-SVG-20010904/DTD/svg10.dtd">
<svg version="1.0" xmlns="http://www.w3.org/2000/svg"
 width="512.000000pt" height="512.000000pt" viewBox="0 0 512.000000 512.000000"
 preserveAspectRatio="xMidYMid meet">
<metadata>
Created by potrace 1.14, written by Peter Selinger 2001-2017
</metadata>
<g transform="translate(0.000000,512.000000) scale(0.100000,-0.100000)"
fill="#000000" stroke="none">
<path d="M4778 5114 c-2 -1 -61 -5 -133 -9 -71 -3 -146 -8 -165 -10 -19 -2
-66 -6 -105 -9 -38 -4 -108 -11 -155 -17 -47 -5 -105 -12 -130 -15 -25 -3 -88
-12 -140 -20 -52 -8 -112 -17 -135 -20 -22 -2 -74 -11 -115 -19 -41 -8 -91
-17 -110 -20 -19 -4 -53 -10 -75 -15 -22 -5 -57 -11 -79 -14 -21 -4 -41 -8
-45 -10 -3 -2 -24 -7 -45 -10 -22 -4 -76 -16 -120 -27 -45 -12 -88 -22 -97
-24 -39 -8 -293 -77 -317 -86 -15 -6 -34 -12 -43 -14 -65 -13 -492 -170 -614
-225 -208 -94 -442 -216 -555 -288 -284 -182 -458 -319 -637 -502 -278 -284
-465 -655 -533 -1055 -18 -105 -23 -177 -24 -315 0 -150 7 -240 29 -365 51
-296 208 -640 399 -876 l45 -56 -423 -424 c-233 -233 -431 -438 -440 -456 -43
-85 14 -192 111 -209 76 -14 72 -17 531 441 l435 434 56 -45 c79 -65 238 -167
329 -213 208 -104 399 -164 642 -202 103 -16 430 -16 515 0 33 6 77 13 97 15
20 3 56 10 80 17 43 11 63 16 106 25 12 2 71 22 130 43 414 149 733 403 1054
842 351 479 633 1148 809 1919 17 74 33 146 35 160 27 142 73 407 79 450 4 25
8 61 11 80 3 19 7 46 10 60 2 14 7 48 9 75 3 28 7 61 10 75 2 14 7 57 11 95 4
39 8 84 10 100 1 17 6 71 9 120 4 50 8 110 10 135 2 25 7 118 10 207 7 157 6
163 -16 203 -37 65 -73 78 -207 77 -62 0 -113 -1 -114 -3z m36 -324 c-1 -14
-5 -72 -8 -130 -4 -58 -8 -123 -10 -145 -2 -22 -7 -76 -11 -120 -3 -44 -8 -91
-10 -105 -2 -14 -7 -49 -10 -79 -4 -30 -8 -61 -10 -70 -1 -9 -6 -45 -9 -81 -4
-36 -11 -90 -16 -120 -5 -30 -12 -73 -15 -95 -4 -22 -20 -112 -36 -200 -17
-88 -33 -172 -35 -186 -15 -85 -141 -565 -154 -589 -7 -13 -98 -15 -714 -15
l-705 0 37 38 c20 21 216 217 435 435 219 218 407 411 418 429 53 84 2 201
-96 221 -82 17 -79 20 -557 -458 -247 -245 -449 -446 -449 -445 -1 0 -2 317
-3 703 -1 617 1 705 14 712 37 19 550 149 690 174 19 3 46 8 60 11 90 18 315
55 360 60 30 3 66 7 80 10 14 2 43 7 65 9 92 11 151 19 167 21 9 2 61 7 115
10 54 4 107 9 118 11 11 2 72 7 135 10 63 3 116 7 117 8 1 1 11 2 21 2 14 0
18 -7 16 -26z m-2259 -1219 l0 -802 -326 -327 c-180 -179 -331 -328 -336 -329
-4 -2 -8 441 -8 984 l0 986 130 67 c190 97 507 233 530 226 6 -2 10 -280 10
-805z m-971 -738 l0 -1038 -242 -240 c-133 -132 -245 -241 -249 -242 -16 -4
-153 197 -208 307 -74 146 -141 354 -160 490 -3 25 -9 59 -12 75 -3 17 -6 95
-7 174 -5 319 76 620 240 893 116 193 313 400 549 577 44 33 82 56 85 51 3 -4
5 -476 4 -1047z m2792 -285 c11 -11 -107 -293 -205 -488 l-87 -175 -991 0
c-662 0 -989 3 -983 10 6 5 155 156 332 335 l323 325 802 0 c441 0 805 -3 809
-7z m-492 -968 c4 -5 -103 -150 -174 -235 -113 -136 -321 -317 -458 -399 -497
-299 -1113 -322 -1632 -61 -113 57 -311 192 -307 208 2 5 111 117 244 250
l242 242 1040 0 c572 0 1042 -2 1045 -5z"/>
</g>
</svg>
